<svg width="177" height="35" viewBox="0 0 177 35" fill="none" xmlns="http://www.w3.org/2000/svg">
<path d="M0.00723499 17.4891L21.3622 10.7858C22.3177 10.4818 23.3963 10.9812 23.4036 11.7269L23.4832 16.9679L0 24.2792V17.4891H0.00723499Z" fill="black"/>
<path d="M0.00732422 7.70219L21.7315 0.883098C22.5133 0.636973 23.3964 1.04236 23.4037 1.65767L23.4905 7.18101L0.00732422 14.4923V7.70219Z" fill="black"/>
<path d="M13.3487 27.6166L0 23.4614V28.9486C0 29.7449 0.658744 30.4615 1.6722 30.78L13.3487 34.4429V27.6166Z" fill="black"/>
<path d="M39.4163 24.8112H42.4928V19.3169H50.2892V16.5805H42.4928V13.3302H51.6646V10.4419H39.4163V24.8112Z" fill="black"/>
<path d="M66.4971 12.2806C65.8167 11.6363 64.9842 11.1296 64.0359 10.7821C63.0876 10.4274 62.0235 10.2537 60.8869 10.2537C59.7504 10.2537 58.6791 10.4346 57.7308 10.7821C56.7825 11.1368 55.9572 11.6363 55.2695 12.2806C54.5891 12.9248 54.0534 13.7067 53.6769 14.6043C53.3005 15.5019 53.1123 16.5009 53.1123 17.5795C53.1123 18.6581 53.3005 19.6716 53.6769 20.5764C54.0534 21.4813 54.5891 22.2776 55.2695 22.9291C55.95 23.5806 56.7752 24.0946 57.7308 24.4565C58.6791 24.8185 59.7432 24.9994 60.8942 24.9994C62.0452 24.9994 63.1021 24.8185 64.0504 24.4565C64.9987 24.0946 65.8312 23.5806 66.5116 22.9291C67.1921 22.2776 67.7278 21.4813 68.1042 20.5764C68.4806 19.6716 68.6688 18.6653 68.6688 17.5795C68.6688 16.4936 68.4806 15.5019 68.1042 14.6043C67.7278 13.7067 67.1921 12.9248 66.5116 12.2806H66.5044H66.4971ZM60.8797 22.0822C60.1993 22.0822 59.5695 21.9736 58.9976 21.7636C58.4257 21.5537 57.9262 21.2497 57.5064 20.8588C57.0937 20.4679 56.7607 19.9973 56.5291 19.4472C56.2975 18.897 56.1744 18.2744 56.1744 17.5795C56.1744 16.8846 56.2902 16.2692 56.5291 15.7191C56.7607 15.1762 57.0937 14.7129 57.5064 14.3365C57.9262 13.96 58.4257 13.6632 58.9976 13.4678C59.5695 13.2651 60.2065 13.1637 60.8869 13.1637C61.5674 13.1637 62.1972 13.2651 62.7763 13.4678C63.3482 13.6632 63.8477 13.96 64.2603 14.3365C64.6729 14.7129 64.9987 15.1762 65.2376 15.7191C65.4765 16.262 65.5923 16.8846 65.5923 17.5795C65.5923 18.2744 65.4765 18.897 65.2376 19.4472C64.9987 19.9973 64.6729 20.4751 64.2531 20.8588C63.8405 21.2497 63.341 21.5537 62.7691 21.7636C62.1972 21.9736 61.5602 22.0822 60.8869 22.0822H60.8797Z" fill="black"/>
<path d="M82.64 19.534C83.0309 19.2155 83.3566 18.8463 83.61 18.4337C83.8706 18.0283 84.0588 17.5723 84.1819 17.0873C84.305 16.6023 84.3629 16.0883 84.3629 15.5599C84.3629 14.7708 84.2398 14.0469 83.9864 13.4171C83.7331 12.7801 83.3494 12.2371 82.8354 11.7883C82.3287 11.3468 81.6772 11.0138 80.9099 10.7821C80.1498 10.5577 79.2449 10.4419 78.2097 10.4419H71.2676V24.8112H74.3441V20.837H78.2025L80.7 24.8112H84.457L81.5035 20.2362C81.9306 20.0407 82.3142 19.8091 82.6472 19.5413L82.64 19.534ZM81.1488 15.5526C81.1488 15.9218 81.0908 16.262 80.975 16.5588C80.8592 16.8556 80.6855 17.1017 80.4538 17.3044C80.2149 17.5144 79.9181 17.6736 79.5634 17.7895C79.2015 17.9053 78.7671 17.9704 78.2821 17.9704H74.3441V13.3013H78.2821C79.2594 13.3013 79.9905 13.504 80.4611 13.8949C80.9244 14.2858 81.1488 14.8215 81.1488 15.5454V15.5526Z" fill="black"/>
<path d="M103.922 10.4345L100.245 19.628L99.7745 21.2278L99.1592 19.6425L97.8417 16.3632L100.31 10.4272H97.1178L96.336 12.7655L95.4963 10.4272H92.3039L94.7724 16.3632L93.4694 19.5918L92.9771 21.235L92.3401 19.5773L88.6916 10.4345H85.3328L91.3628 24.8039H94.2729L95.5252 21.9083L96.307 19.7221L97.0889 21.9155L98.3195 24.8039H101.237L107.26 10.4345H103.901H103.922Z" fill="black"/>
<path d="M136.078 19.534C136.469 19.2155 136.795 18.8463 137.048 18.4337C137.309 18.0283 137.497 17.5723 137.62 17.0873C137.743 16.6023 137.801 16.0883 137.801 15.5599C137.801 14.7708 137.678 14.0469 137.425 13.4171C137.171 12.7801 136.788 12.2371 136.274 11.7883C135.767 11.3468 135.115 11.0138 134.348 10.7821C133.588 10.5577 132.683 10.4419 131.648 10.4419H124.706V24.8112H127.782V20.837H131.641L134.138 24.8112H137.895L134.942 20.2362C135.369 20.0407 135.752 19.8091 136.085 19.5413L136.078 19.534ZM134.587 15.5526C134.587 15.9218 134.529 16.262 134.413 16.5588C134.297 16.8556 134.124 17.1017 133.892 17.3044C133.653 17.5144 133.356 17.6736 133.002 17.7895C132.64 17.9053 132.205 17.9704 131.72 17.9704H127.782V13.3013H131.72C132.698 13.3013 133.429 13.504 133.899 13.8949C134.363 14.2858 134.587 14.8215 134.587 15.5454V15.5526Z" fill="black"/>
<path d="M152.091 12.3457C151.388 11.7304 150.491 11.2526 149.419 10.9268C148.363 10.6011 147.096 10.4346 145.662 10.4346H140.61V24.8039H145.684C147.117 24.8112 148.384 24.6302 149.441 24.2682C150.505 23.9063 151.403 23.3996 152.105 22.7553C152.807 22.111 153.343 21.3292 153.683 20.4461C154.023 19.5629 154.197 18.5929 154.197 17.5577C154.197 16.4719 154.023 15.4729 153.676 14.597C153.328 13.7138 152.793 12.9537 152.083 12.3384L152.091 12.3457ZM146.328 21.9518H143.686V13.3085H146.328C147.11 13.3085 147.798 13.4098 148.384 13.6125C148.956 13.8079 149.448 14.0975 149.832 14.4594C150.208 14.8214 150.505 15.2702 150.693 15.7842C150.889 16.3054 150.983 16.9135 150.983 17.565C150.983 18.2165 150.882 18.8462 150.693 19.3892C150.505 19.9249 150.208 20.3882 149.832 20.7646C149.448 21.141 148.963 21.4378 148.384 21.6477C147.798 21.8577 147.11 21.959 146.336 21.959L146.328 21.9518Z" fill="black"/>
<path d="M159.945 10.2537H156.854V24.623H159.945V10.2537Z" fill="black"/>
<path d="M173.931 10.2537V14.6839L165.902 10.2537H162.971V24.623H166.04V13.8152L173.923 18.1369V24.623H177V10.2537H173.923H173.931Z" fill="black"/>
<path d="M113.442 10.4346L107.035 24.8039H110.293L115.02 14.0541L119.892 24.8039H123.142L116.54 10.4346H113.442Z" fill="black"/>
</svg>
